<?xml version="1.0" standalone="no"?>
<!DOCTYPE svg PUBLIC "-//W3C//DTD SVG 20010904//EN"
 "http://www.w3.org/TR/2001/REC-SVG-20010904/DTD/svg10.dtd">
<svg version="1.0" xmlns="http://www.w3.org/2000/svg"
 width="4548.000000pt" height="4548.000000pt" viewBox="0 0 4548.000000 4548.000000"
 preserveAspectRatio="xMidYMid meet">
<metadata>
Created by potrace 1.11, written by Peter Selinger 2001-2013
</metadata>
<g transform="translate(0.000000,4548.000000) scale(0.100000,-0.100000)"
fill="#000000" stroke="none">
<path d="M9756 45457 c27 -10 83 -32 124 -47 41 -15 156 -58 255 -95 99 -37
275 -102 392 -146 117 -43 223 -83 235 -89 25 -10 687 -256 808 -300 135 -49
355 -131 375 -140 27 -12 397 -150 410 -153 16 -4 157 -58 192 -73 17 -8 34
-14 39 -14 4 0 41 -13 83 -30 42 -16 175 -65 296 -110 121 -45 230 -85 242
-90 12 -5 235 -88 495 -185 260 -97 480 -179 488 -182 8 -3 17 -7 20 -8 3 -1
14 -5 25 -10 11 -4 54 -20 95 -36 297 -109 871 -323 900 -334 19 -8 301 -113
625 -234 325 -121 779 -290 1010 -376 l420 -157 500 -4 c275 -1 883 -6 1350
-9 468 -3 1165 -7 1550 -10 385 -3 1044 -7 1465 -10 421 -2 1143 -7 1605 -11
462 -3 994 -7 1183 -8 274 -1 341 -4 337 -14 -2 -7 -71 -110 -152 -230 -81
-119 -198 -291 -260 -382 -61 -91 -164 -241 -227 -335 -63 -93 -157 -231 -207
-305 -96 -139 -273 -400 -455 -670 -58 -85 -156 -229 -218 -320 -61 -91 -170
-250 -241 -355 -256 -378 -307 -454 -584 -860 -191 -280 -297 -437 -306 -453
-5 -9 -12 -19 -15 -22 -5 -5 -98 -141 -225 -330 -27 -41 -54 -79 -58 -85 -8
-11 -23 -32 -292 -430 -93 -137 -206 -304 -252 -370 -45 -66 -138 -203 -207
-305 -68 -102 -165 -243 -213 -315 -49 -71 -142 -209 -208 -305 -65 -96 -142
-209 -170 -250 -28 -41 -103 -151 -166 -245 -62 -93 -116 -172 -119 -175 -3
-3 -49 -70 -102 -150 -53 -80 -134 -199 -179 -265 -45 -66 -139 -203 -208
-305 -69 -102 -170 -250 -224 -330 -106 -155 -203 -298 -227 -336 -14 -22
-141 -209 -255 -374 -28 -41 -109 -160 -180 -265 -71 -104 -156 -230 -190
-280 -34 -49 -110 -161 -168 -247 -305 -451 -484 -715 -582 -858 -39 -58 -116
-170 -170 -250 -120 -176 -241 -355 -350 -515 -188 -277 -282 -415 -333 -490
-29 -44 -60 -89 -68 -100 -7 -11 -26 -38 -40 -60 -15 -22 -68 -101 -119 -175
-50 -74 -136 -200 -190 -280 -54 -80 -126 -185 -160 -235 -34 -49 -119 -175
-190 -280 -149 -220 -269 -396 -370 -545 -69 -101 -140 -206 -370 -545 -60
-88 -147 -216 -194 -285 -47 -69 -95 -141 -108 -160 -12 -19 -26 -39 -31 -45
-4 -5 -39 -57 -77 -115 -39 -58 -72 -107 -75 -110 -3 -3 -32 -45 -66 -95 -104
-154 -254 -375 -329 -485 -64 -94 -186 -275 -427 -630 -43 -63 -84 -123 -91
-133 -15 -22 -203 -299 -371 -547 -69 -102 -156 -230 -194 -285 -37 -55 -130
-192 -207 -305 -130 -192 -286 -422 -571 -840 -65 -96 -153 -225 -194 -286
-200 -296 -310 -458 -379 -559 -41 -60 -131 -193 -200 -295 -69 -102 -142
-210 -163 -240 -21 -30 -43 -62 -48 -70 -6 -8 -58 -85 -116 -170 -58 -85 -162
-238 -230 -340 -69 -102 -188 -277 -265 -390 -77 -113 -166 -243 -197 -290
-31 -47 -58 -87 -61 -90 -3 -3 -10 -13 -16 -22 -5 -9 -61 -92 -124 -185 -102
-149 -617 -907 -824 -1213 -258 -380 -335 -493 -442 -650 -65 -96 -146 -215
-180 -265 -34 -49 -124 -182 -200 -295 -77 -113 -165 -243 -197 -290 -32 -47
-62 -92 -68 -100 -6 -8 -36 -53 -68 -100 -32 -47 -125 -184 -207 -305 -81
-121 -152 -221 -157 -223 -4 -2 -8 -8 -8 -13 0 -5 -15 -31 -33 -57 -18 -26
-91 -132 -162 -237 -71 -104 -165 -244 -210 -310 -45 -66 -130 -192 -190 -280
-60 -88 -148 -218 -197 -288 -48 -71 -88 -132 -88 -137 0 -5 -3 -10 -8 -12 -4
-1 -35 -43 -68 -93 -33 -49 -108 -160 -166 -245 -180 -264 -327 -481 -396
-585 -37 -55 -69 -102 -72 -105 -3 -3 -32 -45 -66 -95 -33 -49 -108 -160 -166
-245 -58 -85 -149 -220 -203 -300 -54 -80 -137 -201 -183 -270 -47 -69 -128
-188 -180 -265 -52 -77 -132 -194 -177 -260 -45 -66 -140 -205 -211 -310 -71
-104 -170 -251 -221 -325 -213 -313 -322 -477 -328 -491 -4 -11 116 -110 437
-360 395 -307 541 -421 573 -447 6 -4 192 -149 415 -322 223 -173 419 -325
436 -339 42 -35 59 -48 129 -101 33 -25 62 -47 65 -50 7 -9 447 -352 480 -375
25 -17 577 -447 739 -575 31 -25 72 -57 91 -72 121 -94 273 -212 441 -343 288
-224 493 -383 504 -392 6 -5 108 -85 228 -178 213 -165 417 -324 447 -348 8
-7 76 -60 150 -117 74 -58 142 -110 150 -117 76 -60 177 -138 235 -183 39 -30
160 -124 270 -210 110 -86 231 -180 269 -209 38 -30 76 -60 85 -67 22 -19 347
-271 460 -357 51 -40 99 -77 105 -82 6 -6 49 -40 96 -75 47 -36 87 -67 90 -70
3 -3 25 -21 50 -40 25 -19 47 -37 50 -40 3 -3 43 -34 89 -69 46 -35 91 -69
100 -77 9 -7 66 -52 126 -99 61 -47 135 -105 165 -128 30 -24 167 -131 305
-238 137 -107 257 -200 265 -206 16 -14 344 -268 400 -311 19 -15 36 -30 38
-34 2 -5 10 -8 17 -8 7 0 15 -4 17 -9 2 -5 161 -131 353 -280 193 -150 364
-283 380 -296 25 -21 122 -96 410 -320 17 -12 66 -51 111 -86 45 -35 96 -75
115 -89 18 -14 47 -36 63 -50 17 -15 132 -104 256 -200 124 -96 232 -180 240
-187 21 -16 339 -263 371 -288 15 -11 96 -74 180 -140 84 -66 185 -145 224
-174 38 -30 75 -59 80 -63 6 -5 60 -47 120 -94 276 -214 325 -252 400 -311 44
-35 89 -70 100 -79 61 -47 450 -349 519 -404 46 -36 98 -76 116 -90 18 -14 59
-45 90 -70 31 -25 72 -56 90 -70 43 -33 331 -257 350 -273 8 -7 65 -50 125
-97 61 -46 112 -87 115 -90 3 -3 23 -19 44 -35 57 -43 131 -101 227 -176 46
-36 228 -177 404 -314 176 -137 322 -252 325 -255 3 -3 21 -17 40 -30 19 -13
37 -27 40 -30 5 -6 104 -84 186 -146 28 -21 150 -116 270 -210 120 -93 343
-267 494 -384 151 -118 282 -220 290 -227 8 -7 166 -130 350 -273 184 -143
342 -266 350 -273 9 -7 42 -33 75 -57 33 -25 62 -47 65 -50 3 -3 66 -53 140
-110 74 -58 142 -110 150 -117 8 -7 123 -96 255 -199 132 -102 257 -200 278
-216 20 -17 63 -50 94 -73 l57 -43 41 31 c22 18 67 55 100 82 33 28 116 95
185 150 69 55 127 103 130 106 3 3 75 61 160 129 85 68 157 127 160 130 3 3
39 32 80 64 41 32 80 64 85 70 6 6 39 33 75 61 36 27 67 52 70 55 3 3 73 60
155 127 160 128 460 371 671 543 71 57 174 140 229 184 55 44 102 82 105 85 3
4 61 51 130 106 69 55 127 102 130 105 3 3 39 32 80 65 41 33 84 67 95 77 11
9 110 89 220 178 110 89 216 174 235 190 19 16 114 92 210 170 96 78 193 156
215 175 22 18 94 76 160 129 66 53 129 104 140 114 11 9 64 52 118 94 53 43
107 87 120 97 12 11 157 129 322 262 476 384 630 510 820 664 157 127 389 315
470 380 55 44 102 82 105 85 3 3 48 40 100 82 52 41 304 245 560 452 256 207
491 398 523 424 32 26 64 52 70 57 7 6 71 58 142 115 72 58 139 112 150 121
11 10 106 86 210 170 105 85 199 161 210 170 26 22 351 285 401 324 20 17 42
35 48 40 6 6 67 55 136 110 68 55 248 201 400 323 151 123 293 238 314 255 22
18 101 82 175 142 131 106 382 310 601 485 58 47 110 90 116 95 12 11 80 66
379 307 346 280 890 720 910 736 11 10 78 64 150 122 71 58 139 112 150 122
16 13 104 84 175 141 60 48 118 95 135 109 104 85 379 308 415 336 25 20 47
39 50 42 5 5 226 184 285 230 39 31 108 87 149 121 33 27 378 306 556 449 58
47 111 90 118 97 8 8 30 26 50 41 21 15 39 29 42 32 3 3 100 82 215 175 116
93 212 171 215 174 3 4 84 69 180 146 96 77 181 145 188 152 8 8 30 26 50 41
21 15 39 29 42 32 4 5 115 95 330 268 30 25 73 60 95 78 111 90 386 313 419
339 21 17 44 35 50 40 6 6 58 48 116 94 58 47 200 161 315 255 116 94 271 219
345 279 74 60 144 116 155 126 11 9 54 43 95 76 41 33 84 68 95 77 11 9 99 81
195 159 96 78 175 145 175 149 0 3 -153 235 -340 514 -187 279 -345 515 -350
524 -31 51 -131 197 -137 200 -5 2 -8 7 -8 11 0 5 -42 71 -93 147 -181 270
-2007 3004 -2257 3379 -139 209 -257 382 -262 383 -4 2 -8 8 -8 12 0 11 -222
344 -232 348 -5 2 -8 8 -8 14 0 9 -58 99 -70 108 -4 3 -9 10 -11 16 -7 18
-204 309 -211 312 -5 2 -8 7 -8 12 0 6 -293 448 -450 680 -168 248 -470 704
-470 711 0 5 -4 9 -8 9 -5 0 -14 10 -21 23 -16 32 -6 16 -467 704 -231 345
-724 1083 -1094 1638 -371 556 -678 1012 -682 1013 -5 2 -8 7 -8 11 0 4 -171
264 -380 577 -209 313 -789 1180 -1288 1927 -499 746 -911 1365 -917 1375 -5
9 -12 19 -15 22 -6 6 -1020 1523 -1035 1548 -15 25 -49 75 -58 87 -5 6 -90
134 -191 285 -100 151 -235 353 -299 449 -64 95 -117 177 -117 181 0 5 -3 10
-7 12 -8 3 -124 173 -168 244 -36 58 -459 689 -466 694 -3 3 -8 10 -10 15 -2
6 -199 303 -438 660 -239 358 -607 909 -819 1225 -211 316 -386 577 -389 580
-2 3 -11 -4 -19 -14 -7 -11 -16 -18 -18 -15 -3 4 -411 681 -431 717 -5 9 -20
34 -32 53 -13 20 -23 42 -23 48 0 9 1129 1712 1886 2844 98 148 184 276 189
284 95 145 676 1021 682 1028 10 12 103 152 118 177 24 41 592 891 607 910 10
11 20 29 23 39 4 11 11 19 16 19 5 0 9 4 9 9 0 5 58 96 130 203 71 106 134
200 140 208 5 8 307 463 671 1010 797 1199 1031 1551 1042 1565 4 5 206 309
449 675 243 366 558 839 700 1053 142 213 258 389 258 391 0 1 -5126 3 -11391
3 -11285 0 -11391 0 -11343 -20z"/>
<path d="M16877 41876 c10 -7 54 -28 98 -48 44 -20 123 -57 175 -81 139 -65
416 -195 480 -224 30 -14 111 -52 179 -84 68 -33 125 -59 126 -59 1 0 67 -31
147 -69 79 -38 168 -80 198 -94 166 -76 283 -130 430 -200 141 -66 275 -129
374 -174 l100 -46 1025 -3 c564 -1 1043 -3 1065 -3 l38 -1 -48 -57 c-66 -78
-66 -77 -205 -248 -68 -82 -128 -155 -133 -161 -6 -7 -27 -31 -46 -55 -19 -24
-102 -125 -185 -224 -82 -100 -163 -198 -180 -219 -16 -21 -38 -48 -49 -60
-10 -11 -44 -52 -75 -91 -31 -38 -62 -76 -68 -83 -7 -7 -95 -113 -195 -235
-100 -122 -196 -238 -212 -257 -17 -20 -47 -55 -66 -80 -19 -24 -40 -48 -45
-54 -6 -6 -37 -45 -70 -86 -33 -41 -67 -82 -75 -90 -9 -8 -31 -35 -50 -60 -19
-25 -37 -47 -40 -50 -8 -8 -62 -73 -100 -120 -32 -39 -97 -119 -173 -211 -72
-86 -579 -701 -641 -776 l-69 -84 111 -112 c61 -62 199 -202 307 -312 321
-327 816 -825 820 -825 4 0 273 398 593 875 78 116 145 215 149 220 5 6 53 78
109 160 146 218 469 697 531 788 29 42 53 81 53 86 0 5 3 11 8 13 8 3 19 20
244 353 85 127 224 333 309 459 85 126 215 319 289 430 75 110 216 320 314
466 99 146 239 353 311 460 72 107 212 314 311 460 404 599 513 764 509 769
-3 3 -81 6 -173 7 -92 1 -347 5 -567 9 -220 3 -519 8 -665 10 -146 2 -431 7
-635 10 -460 7 -816 13 -1280 20 -198 3 -495 7 -660 10 -165 3 -455 7 -645 10
-190 3 -469 7 -620 10 -151 2 -462 7 -690 10 -228 4 -493 8 -588 9 -134 3
-168 1 -155 -8z"/>
</g>
</svg>
